<svg width="33" height="33" viewBox="0 0 33 33" fill="none" xmlns="http://www.w3.org/2000/svg">
<path d="M30.0522 14.4722L29.5495 14.384C29.5583 14.3399 29.5636 14.2923 29.5636 14.2464C29.5636 9.51577 28.3413 5.90695 25.9283 3.52047C23.713 1.32625 20.538 0.239725 16.4777 0.275002C12.1122 0.319098 8.745 1.72312 6.46788 4.44649C4.46415 6.84355 3.40585 10.2319 3.40585 14.2446C3.40585 14.2552 3.40761 14.264 3.40937 14.2746L2.28933 14.4722C0.784776 14.7367 -0.222378 16.176 0.0421985 17.6806L1.52735 26.1029C1.76371 27.4452 2.9349 28.3924 4.25425 28.3924C4.413 28.3924 4.57527 28.3783 4.73578 28.3501L6.06748 28.1155C6.57371 29.2197 8.00595 31.0311 11.9552 31.0311C12.4138 31.0311 12.9077 31.0064 13.4386 30.9535L13.2975 29.5495C9.55284 29.9234 8.09237 28.7152 7.53324 27.8562H7.54029C9.04485 27.5899 10.052 26.1506 9.78743 24.646L8.30227 16.2237C8.17351 15.497 7.76959 14.8637 7.16283 14.4387C6.55607 14.0136 5.82055 13.8495 5.09561 13.9783L4.82398 14.0259C4.86102 10.4453 5.80114 7.44855 7.5544 5.35134C9.5546 2.95957 12.562 1.72664 16.4953 1.68608C20.1553 1.64727 23.0004 2.60327 24.9388 4.52057C27.0554 6.61602 28.1349 9.8509 28.1543 14.1353L27.253 13.9765C25.7484 13.712 24.3109 14.7191 24.0446 16.2237L22.5594 24.646C22.2948 26.1506 23.302 27.5899 24.8065 27.8544L27.6093 28.3483C27.7716 28.3765 27.9321 28.3906 28.0908 28.3906C29.4084 28.3906 30.5796 27.4435 30.8177 26.1012L32.3029 17.6788C32.5675 16.1743 31.5603 14.735 30.0557 14.4704L30.0522 14.4722ZM5.33725 15.3682C5.41663 15.3541 5.49424 15.347 5.57361 15.347C5.84877 15.347 6.11864 15.4317 6.35146 15.594C6.64955 15.8039 6.84887 16.1143 6.9106 16.4688L8.39576 24.8912C8.52628 25.6285 8.03064 26.334 7.29335 26.4645L4.49061 26.9584C3.75156 27.0889 3.04779 26.5933 2.91726 25.856L1.43211 17.4337C1.30158 16.6964 1.79722 15.9891 2.53451 15.8603L5.33725 15.3664V15.3682ZM30.9094 17.4354L29.4243 25.8578C29.2938 26.5951 28.59 27.0907 27.8509 26.9602L25.0482 26.4663C24.3109 26.3358 23.817 25.6302 23.9458 24.893L25.4309 16.4706C25.5474 15.8127 26.1224 15.347 26.7679 15.347C26.8455 15.347 26.9249 15.3541 27.0043 15.3682L29.807 15.8621C30.5443 15.9926 31.0382 16.6981 30.9094 17.4354Z" fill="#A3A3A3"/>
<path d="M19.2029 31.0805V29.6571C19.2029 29.0872 18.7409 28.6252 18.171 28.6252H13.8937C13.3238 28.6252 12.8619 29.0872 12.8619 29.6571V31.0805C12.8619 31.6504 13.3238 32.1124 13.8937 32.1124H18.171C18.7409 32.1124 19.2029 31.6504 19.2029 31.0805Z" fill="white"/>
</svg>
