<svg width="41" height="37" viewBox="0 0 41 37" fill="none" xmlns="http://www.w3.org/2000/svg">
<g clip-path="url(#clip0_1797_7109)">
<path d="M27.4177 6.77104L25.6764 7.19322C25.5189 7.2316 25.3694 7.10232 25.3694 6.92658L25.3835 3.60568L27.6298 3.17542L27.6156 6.50642C27.6156 6.63368 27.5328 6.74478 27.4177 6.77306V6.77104Z" fill="white"/>
<path d="M39.8972 17.6347C39.8609 17.5539 39.8124 17.4792 39.7518 17.4125L37.5965 15.0915C37.3642 14.7784 37.0531 14.4047 36.6693 14.0936C36.6087 14.027 36.538 13.9785 36.4632 13.9381C36.1845 13.7421 35.8714 13.5846 35.5239 13.5018C35.4694 13.4735 28.7468 11.6353 28.7468 11.6353L29.5891 11.3747C30.2194 11.1787 30.6436 10.603 30.6436 9.94451V3.1512C30.6436 2.70074 30.4436 2.27856 30.0961 1.99374C29.9164 1.84628 29.7103 1.74528 29.4922 1.69477C29.4558 1.67861 29.4194 1.66245 29.379 1.65235L22.8706 0.0383635C22.6564 -0.0121368 22.4302 -0.0121368 22.2141 0.0383635L15.6106 1.65235C15.5622 1.66447 15.5157 1.68467 15.4733 1.70689C15.2733 1.76144 15.0814 1.8584 14.9157 1.99374C14.5683 2.27856 14.3683 2.70074 14.3683 3.1512V10.2293C14.3683 10.906 14.8248 11.5019 15.4793 11.6757L16.055 11.8312L9.67785 13.423C9.55463 13.4533 8.90621 13.6977 8.75269 13.8856C8.75269 13.8856 7.8255 14.9541 7.48816 15.4006C7.38514 15.5359 7.27808 15.6793 7.16496 15.8248L5.87215 17.4064C5.82569 17.463 5.78933 17.5236 5.75903 17.5903C5.52673 18.1114 5.54693 18.6972 5.81357 19.1982C6.08425 19.7072 6.56703 20.0567 7.13668 20.1597L7.60128 20.2446V30.882C7.60128 32.0031 8.35676 32.9868 9.43949 33.2777L20.2102 36.1683C20.3455 36.2047 20.4829 36.2249 20.6203 36.239C21 36.3057 21.6101 36.3845 22.3575 36.3845C23.0099 36.3845 23.7674 36.3218 24.5593 36.138C24.6845 36.1198 24.8118 36.0916 24.935 36.0512L35.7057 32.708C36.7501 32.3848 37.451 31.4314 37.451 30.3386V20.4082L38.5115 20.2021C39.0852 20.0991 39.568 19.7497 39.8387 19.2406C40.1053 18.7396 40.1255 18.1538 39.8932 17.6327L39.8972 17.6347ZM29.3225 2.93102C29.3609 2.96334 29.4275 3.03404 29.4275 3.15322V9.94249C29.4275 10.0677 29.3467 10.1788 29.2255 10.2152L26.452 11.0757C26.3672 11.0878 26.2864 11.1141 26.2096 11.1505L23.4927 11.9948C23.4927 11.9948 23.4806 11.9968 23.4766 11.9989C23.3594 12.0312 23.2705 11.9867 23.2281 11.9544C23.1837 11.9221 23.1109 11.8494 23.1109 11.7241V4.28645C23.1109 4.15313 23.2039 4.04001 23.3331 4.00971L29.1791 2.87042C29.2457 2.8785 29.2962 2.9088 29.3245 2.93304L29.3225 2.93102ZM22.4969 1.21805C22.5272 1.20997 22.5575 1.20997 22.5817 1.21805L26.4036 2.16746L23.1049 2.8179C23.0928 2.81992 23.0806 2.82396 23.0685 2.82598L22.5029 2.93708L21.9474 2.83002C21.9313 2.82598 21.9171 2.82194 21.901 2.8179L18.6124 2.16948L22.4969 1.22007V1.21805ZM15.5803 10.2314V3.1512C15.5803 3.03404 15.645 2.96132 15.6854 2.929C15.7116 2.9088 15.7561 2.88052 15.8167 2.8684L21.6788 4.00567C21.806 4.03597 21.8989 4.14909 21.8989 4.28241V11.7686C21.8989 11.8918 21.8282 11.9645 21.7878 11.9948C21.7474 12.0251 21.6586 12.0756 21.5394 12.0433L15.7945 10.502C15.6692 10.4677 15.5824 10.3546 15.5824 10.2253L15.5803 10.2314ZM7.42756 18.572C7.31646 18.5518 7.26394 18.4831 7.24374 18.4427C7.22758 18.4124 7.21344 18.37 7.2195 18.3175L9.71623 15.2632C9.84349 15.1521 9.95257 15.0915 10.0576 15.0673L21.0667 17.2044C21.1576 17.2267 21.2424 17.263 21.3192 17.3115L19.2911 20.4203C19.2669 20.4567 19.2467 20.495 19.2285 20.5334C19.18 20.6425 19.0548 20.7051 18.9356 20.6849L7.42554 18.57L7.42756 18.572ZM21.7192 33.6857V33.7746C21.7192 34.0453 21.5959 34.2958 21.3798 34.4614C21.2242 34.5806 21.0364 34.6412 20.8445 34.6392C20.697 34.6129 20.6081 34.5907 20.6001 34.5887C20.5637 34.5786 20.5253 34.5766 20.489 34.5725L9.85763 31.7203C9.47989 31.6193 9.21729 31.2759 9.21729 30.884V20.5435L18.6467 22.2767C18.7598 22.2969 18.873 22.307 18.9841 22.307C19.6971 22.307 20.3536 21.907 20.6728 21.2586L21.7171 19.6567V33.6837L21.7192 33.6857ZM21.4202 15.6288C21.3919 15.6228 21.3636 15.6127 21.3333 15.6086L13.6674 14.0956C13.6674 14.0956 18.9315 12.7341 19.0325 12.6331L21.204 13.2169V13.223C21.2343 13.2311 21.7151 13.3523 22.3979 13.3523C22.816 13.3523 23.3109 13.3078 23.824 13.1624C23.824 13.1624 23.8341 13.1604 23.8402 13.1584L26.0218 12.4816C26.1127 12.5624 31.5304 14.0694 31.5304 14.0694L23.721 15.6106C23.6967 15.6147 23.6745 15.6228 23.6523 15.6268L22.5292 15.845L21.4242 15.6308L21.4202 15.6288ZM35.835 30.3426C35.835 30.7244 35.5906 31.0557 35.227 31.1688L24.5734 34.4756C24.5512 34.4796 24.529 34.4816 24.5068 34.4877C24.426 34.5099 24.3472 34.5281 24.2664 34.5483C24.0624 34.5644 23.8583 34.5079 23.6887 34.3826C23.4644 34.217 23.3372 33.9645 23.3372 33.6857V19.6022L24.5775 21.505C24.8966 22.1535 25.5531 22.5514 26.2702 22.5514C26.3854 22.5514 26.5005 22.5413 26.6157 22.5211L35.835 20.7273V30.3426ZM38.4125 18.4871C38.3923 18.5255 38.3398 18.5962 38.2166 18.6184L26.3187 20.9334C26.1935 20.9556 26.0703 20.893 26.0218 20.7839C26.0036 20.7455 25.9834 20.7071 25.9612 20.6708L23.7634 17.2994C23.8361 17.257 23.9149 17.2267 23.9997 17.2065L35.0331 15.0572C35.1846 15.0693 35.3583 15.1319 35.5663 15.2874L38.4388 18.3821C38.4388 18.4265 38.4267 18.4629 38.4125 18.4912V18.4871Z" fill="#A3A3A3"/>
<path d="M11.1141 6.26406L9.2941 5.52474L7.47407 4.78541C7.13471 4.64805 6.79332 4.94297 6.85796 5.31667L7.12663 6.8438C-1.40995 9.77686 0.0949597 18.7215 0.11314 18.8104C0.16566 19.1033 0.420182 19.3093 0.709044 19.3093C0.745404 19.3093 0.779744 19.3053 0.816104 19.2992C1.14537 19.2406 1.36555 18.9255 1.30697 18.5962C1.24839 18.273 1.92643e-05 10.7061 7.33671 8.05379L7.55891 9.32438C7.62355 9.69808 8.04775 9.86978 8.32247 9.63344L9.79102 8.36689L11.2596 7.10035C11.5323 6.864 11.4515 6.39738 11.1121 6.26002L11.1141 6.26406Z" fill="#A3A3A3"/>
</g>
<defs>
<clipPath id="clip0_1797_7109">
<rect width="40.0569" height="36.3865" fill="white"/>
</clipPath>
</defs>
</svg>
