<svg width="44" height="33" viewBox="0 0 44 33" fill="none" xmlns="http://www.w3.org/2000/svg">
<g clip-path="url(#clip0_1797_7100)">
<path d="M41.7321 11.0706C41.7321 11.0706 41.718 11.0645 41.7119 11.0625L13.2683 0.44173C12.5974 0.191924 11.848 0.224157 11.2074 0.528357C1.36218 5.22028 1.08014 5.95761 0.927038 6.35649L0.0708474 8.59468C-0.0802449 8.98953 -0.362284 9.72485 3.79175 19.7957C4.07983 20.4927 4.64794 21.0447 5.34901 21.3066L9.4426 22.8356L10.2686 24.961C9.96438 26.5283 9.58161 28.1339 9.11625 29.7698C8.99537 30.1969 9.24316 30.6441 9.67025 30.765C9.74479 30.7851 9.81731 30.7952 9.89185 30.7952C10.2424 30.7952 10.5647 30.5635 10.6675 30.2089C10.9092 29.3608 11.1268 28.5187 11.3262 27.6847L12.4503 30.5816C12.5753 30.8999 12.8795 31.0954 13.2018 31.0954C13.2985 31.0954 13.3972 31.0772 13.4939 31.041C13.9089 30.8798 14.1144 30.4124 13.9532 29.9974L11.9387 24.8039C11.9991 24.4755 12.0555 24.1511 12.1099 23.8268L33.7423 31.9052C34.0828 32.0402 34.4393 32.1087 34.7919 32.1087C35.1444 32.1087 35.499 32.0382 35.8213 31.8992C36.3854 31.6534 36.8125 31.2162 37.022 30.6642L43.3054 14.2375C43.7688 13.0267 43.0637 11.6044 41.7341 11.0665L41.7321 11.0706ZM9.47282 9.97667C9.0135 10.4138 8.58239 11.2297 8.32654 12.0094C8.25401 11.9046 8.18955 11.7918 8.13515 11.6709C7.64964 10.5851 8.13918 9.30783 9.22503 8.82232C9.50909 8.6954 9.80724 8.63497 10.1014 8.63497C10.9273 8.63497 11.715 9.1104 12.0736 9.9122C12.2811 10.3796 12.3093 10.8812 12.1885 11.3405C11.9104 10.3373 11.5156 9.78528 10.9596 9.58181C10.6695 9.47706 10.0933 9.38841 9.47484 9.97667H9.47282ZM10.8488 12.8132C10.4821 12.9482 10.0973 12.9804 9.7327 12.9159C9.84753 12.4183 10.1819 11.6367 10.462 11.272C10.5667 11.4997 10.7158 11.953 10.8468 12.8132H10.8488ZM41.7985 13.6653L35.5151 30.0921C35.4446 30.2754 35.2915 30.3741 35.1767 30.4245C34.9289 30.5313 34.6227 30.5272 34.3346 30.4104C34.3285 30.4084 34.3205 30.4044 34.3144 30.4023L12.3496 22.199C12.7525 19.1329 12.8311 16.248 12.5692 13.6412C13.0346 13.2403 13.3972 12.7266 13.6228 12.1363C13.9814 11.1955 13.9552 10.1721 13.5443 9.25344C12.6961 7.35572 10.464 6.50154 8.56627 7.34967C6.66855 8.19781 5.81437 10.4299 6.6625 12.3277C7.28702 13.7278 8.667 14.5598 10.1094 14.5598C10.4136 14.5598 10.7219 14.5175 11.024 14.4409C11.1933 16.6509 11.1167 19.0644 10.8024 21.6209L5.9151 19.7957C5.63105 19.6889 5.40139 19.4653 5.28253 19.1812C2.79454 13.1496 1.65631 9.79737 1.60998 9.08019L2.39767 7.0213C2.9134 6.51766 6.00777 4.78916 11.9004 1.98287C12.1522 1.862 12.4383 1.85193 12.7042 1.95064L41.1337 12.5674C41.6313 12.7749 41.9416 13.2846 41.7945 13.6653H41.7985Z" fill="#A3A3A3"/>
<path d="M29.7673 19.1547L30.5147 19.8518C30.6396 19.9686 30.6477 20.164 30.5288 20.2869C29.7714 21.0746 28.6976 21.4977 27.4103 21.4977C25.4461 21.4977 23.8767 20.4299 23.2865 18.7981C23.2442 18.6793 23.1273 18.6007 23.0004 18.6007H22.2248C22.0556 18.6007 21.9186 18.4637 21.9186 18.2945V17.9399C21.9186 17.7707 22.0556 17.6337 22.2248 17.6337H22.7304C22.8997 17.6337 23.0367 17.4947 23.0367 17.3255C23.0367 17.3255 23.0367 17.3235 23.0367 17.3215C23.0367 17.3194 23.0367 17.3194 23.0367 17.3174C23.0367 17.1482 22.8997 17.0092 22.7304 17.0092H22.2248C22.0556 17.0092 21.9186 16.8722 21.9186 16.703V16.3484C21.9186 16.1792 22.0556 16.0422 22.2248 16.0422H23.0004C23.1273 16.0422 23.2442 15.9657 23.2865 15.8448C23.8767 14.213 25.4461 13.1453 27.4103 13.1453C28.6956 13.1453 29.7693 13.5683 30.5268 14.3459C30.6457 14.4688 30.6376 14.6663 30.5127 14.7831L29.7653 15.4801C29.6444 15.593 29.4611 15.5869 29.3402 15.4741C28.8265 14.9886 28.2121 14.7388 27.5009 14.7388C26.7153 14.7388 26.0424 15.0289 25.579 15.5285C25.3977 15.7239 25.5408 16.0422 25.8067 16.0422H27.8273C27.9965 16.0422 28.1335 16.1792 28.1335 16.3484V16.703C28.1335 16.8722 27.9965 17.0092 27.8273 17.0092H25.2225C25.0532 17.0092 24.9163 17.1462 24.9163 17.3154C24.9163 17.3154 24.9163 17.3194 24.9163 17.3215C24.9163 17.3235 24.9163 17.3255 24.9163 17.3275C24.9163 17.4967 25.0553 17.6337 25.2225 17.6337H27.8273C27.9965 17.6337 28.1335 17.7707 28.1335 17.9399V18.2945C28.1335 18.4637 27.9965 18.6007 27.8273 18.6007H25.8067C25.5408 18.6007 25.3977 18.919 25.579 19.1144C26.0424 19.614 26.7132 19.9041 27.5009 19.9041C28.2121 19.9041 28.8245 19.6543 29.3402 19.1608C29.4591 19.0459 29.6464 19.0399 29.7673 19.1527V19.1547Z" fill="white"/>
</g>
<defs>
<clipPath id="clip0_1797_7100">
<rect width="43.4441" height="31.8382" fill="white" transform="translate(0 0.27417)"/>
</clipPath>
</defs>
</svg>
