<svg width="36" height="38" viewBox="0 0 36 38" fill="none" xmlns="http://www.w3.org/2000/svg">
<path d="M34.7483 9.52719C32.6137 8.33532 30.4882 7.31319 28.7582 6.65044C25.9067 5.55789 24.9171 5.72583 24.4205 5.94615C24.034 6.11771 23.7722 6.43012 23.6837 6.82561C23.5952 7.21387 23.5681 7.58769 23.5681 7.94164H18.5857C18.5912 7.81523 18.593 7.68701 18.593 7.54976C18.593 7.33125 18.5911 6.92313 18.6471 6.80574C18.7681 6.57459 19.0769 6.35428 19.4056 6.12132C19.8968 5.77279 20.453 5.3773 20.7474 4.70732C21.1735 3.73576 21.0219 2.74976 20.3338 1.99671C19.5176 1.10461 18.1234 0.761493 16.9442 1.15878C15.7198 1.57233 14.9379 2.69739 14.7988 4.24502C14.7627 4.64231 15.0571 4.99265 15.4544 5.02877C15.848 5.06488 16.202 4.77053 16.2381 4.37324C16.3266 3.39445 16.7311 2.75698 17.4083 2.52763C18.0404 2.31454 18.8404 2.50416 19.2684 2.97188C19.5645 3.29513 19.6169 3.68339 19.4237 4.12583C19.29 4.42922 18.9397 4.68023 18.5677 4.94389C18.1379 5.24908 17.6503 5.59581 17.3668 6.13396C17.1428 6.56015 17.1446 7.08746 17.1465 7.55518C17.1465 7.70326 17.1465 7.84051 17.1392 7.94164H11.9383C11.9546 7.63644 11.9654 7.31139 11.96 6.97369C11.951 6.4229 11.6078 5.9931 11.0426 5.82154C8.8557 5.16421 1.12115 8.6694 0.382551 9.74751C-0.585396 11.1615 0.458397 14.8834 1.57262 16.7254C2.26246 17.8649 3.00468 18.394 3.77759 18.3037C4.49994 18.217 5.05253 18.134 5.45705 18.0726C5.89949 18.0058 6.35818 17.9353 6.45389 17.9678C6.5171 17.9985 6.71213 18.2225 6.86382 18.3994C8.05931 19.8116 7.35502 24.3353 6.78798 27.9687C6.14509 32.1006 5.79655 34.6902 6.7338 35.8351C7.44712 36.7056 10.378 37.2166 15.4471 37.3557C16.1875 37.3755 16.9406 37.3864 17.69 37.3864C19.848 37.3864 21.988 37.3051 23.7903 37.148C28.1749 36.7688 28.7528 36.1367 29.0002 35.8658C29.7316 35.064 29.4896 33.1028 28.9153 29.0974C28.3663 25.2636 27.6151 20.0265 28.8629 18.4428C29.0056 18.3218 29.114 18.2189 29.1952 18.143C29.2368 18.1051 29.2837 18.0599 29.3162 18.031C29.4553 18.0256 29.8345 18.0762 30.2661 18.134C30.6074 18.1791 31.039 18.2369 31.5952 18.3037C32.3158 18.3886 33.049 17.8974 33.7695 16.8392C34.2968 16.0644 34.7988 15.008 35.1456 13.9425C35.5754 12.617 36.0973 10.282 34.7465 9.52539L34.7483 9.52719ZM23.6675 9.38995C23.7072 9.9299 23.6837 10.2802 23.4598 10.5258C22.8711 11.1687 20.7979 11.4775 17.3054 11.445C14.4647 11.4288 12.7979 11.1164 12.2128 10.4915C11.9708 10.2333 11.8896 9.88475 11.8805 9.38995H23.6675ZM33.9266 12.9818C33.3451 15.1471 32.1749 16.7868 31.7541 16.8681C31.2142 16.803 30.7934 16.7471 30.4593 16.7037C29.1266 16.5249 28.8485 16.4888 28.2074 17.092C28.1207 17.1733 28.0214 17.2654 27.886 17.3791C27.8535 17.4062 27.8228 17.4351 27.7957 17.4676C26.0801 19.4938 26.8277 24.7055 27.4869 29.3051C27.7921 31.4288 28.2074 34.329 27.9239 34.9015C27.4128 35.3186 23.913 35.929 17.8832 35.9417C11.7198 35.9489 8.29768 35.3493 7.85163 34.9214C7.27556 34.2171 7.81913 30.7353 8.21461 28.1909C8.89001 23.8604 9.58708 19.3818 7.96179 17.4604C7.35502 16.7561 7.03177 16.5213 6.37985 16.5213C6.08549 16.5213 5.72432 16.5683 5.24034 16.6423C4.82499 16.7055 4.30671 16.785 3.61687 16.8681C3.51393 16.8554 3.00648 16.5304 2.38526 15.1633C1.47871 13.166 1.26923 11.0586 1.5654 10.5782C1.86156 10.273 3.70535 9.27437 5.98256 8.37505C8.77443 7.27346 10.0873 7.1308 10.5153 7.18137C10.5153 7.5606 10.4918 7.92538 10.4701 8.27934C10.3979 9.4694 10.3311 10.5927 11.1546 11.4739C12.0611 12.4437 13.8977 12.8662 17.2909 12.8861C21.4914 12.9258 23.5808 12.5231 24.5216 11.4992C25.2458 10.71 25.1519 9.72223 25.0688 8.84999C25.0182 8.32268 24.9677 7.7773 25.0688 7.23915C25.8237 7.02425 29.2295 8.09514 34.0386 10.7841C34.1433 10.8708 34.3095 11.5462 33.923 12.9782L33.9266 12.9818Z" fill="#A3A3A3"/>
<path d="M16.6859 27.3693C16.4331 27.3693 16.1911 27.2628 16.0196 27.0768L13.8959 24.7544C13.56 24.386 13.5853 23.8154 13.9518 23.4795C14.3202 23.1436 14.8909 23.1671 15.2268 23.5355L16.5776 25.0109L20.2977 19.4867C20.5758 19.0732 21.1374 18.963 21.551 19.2429C21.9645 19.521 22.0747 20.0827 21.7947 20.4962L17.4336 26.9721C17.2783 27.2014 17.0272 27.3477 16.7509 27.3675C16.7293 27.3675 16.7058 27.3693 16.6841 27.3693H16.6859Z" fill="white"/>
</svg>
